<svg width="340" height="154" viewBox="0 0 340 154" fill="none" xmlns="http://www.w3.org/2000/svg">
<path d="M53.0933 0.419997V44.065H52.8033C49.6133 38.555 42.7983 34.64 33.3733 34.64C15.9733 34.64 0.748301 49.72 0.748301 77.27C0.748301 101.775 13.7983 118.595 32.0683 118.595C41.9283 118.595 50.6283 113.52 54.8333 105.545H55.2683L56.2833 117H75.1333C74.8433 111.055 74.5533 102.065 74.5533 93.945V0.419997H53.0933ZM53.0933 83.94C53.0933 96.7 44.9733 101.34 38.5933 101.34C28.4433 101.34 22.3533 91.625 22.3533 76.98C22.3533 62.915 27.8633 51.605 38.8833 51.605C45.9883 51.605 53.0933 57.405 53.0933 69.15V83.94ZM116.209 14.195C116.209 7.52499 111.569 2.73999 104.609 2.73999C97.9391 2.73999 93.1541 7.52499 93.1541 14.195C93.1541 20.72 97.7941 25.65 104.609 25.65C111.279 25.65 116.209 21.155 116.209 14.195ZM94.0241 36.235V117H115.484V36.235H94.0241ZM134.805 0.419997V117H156.265V0.419997H134.805ZM197.772 14.195C197.772 7.52499 193.132 2.73999 186.172 2.73999C179.502 2.73999 174.717 7.52499 174.717 14.195C174.717 20.72 179.357 25.65 186.172 25.65C192.842 25.65 197.772 21.155 197.772 14.195ZM175.587 36.235V117H197.047V36.235H175.587ZM209.263 36.235V52.04H219.848V89.305C219.848 98.295 220.283 118.45 243.483 118.45C249.718 118.45 254.938 117.725 257.838 116.565L257.548 100.18C255.373 100.615 253.633 100.905 250.588 100.905C244.063 100.905 241.018 96.845 241.018 87.13V52.04H258.853V36.235H241.018V15.21L219.848 21.445V36.235H209.263ZM306.524 78.43C305.364 83.505 304.059 89.16 303.189 93.51H302.754C301.739 89.015 300.289 83.36 298.984 78.43L287.094 36.235H263.604L290.719 110.475C291.299 112.07 291.589 113.23 291.589 114.1C291.589 115.695 287.964 123.96 280.859 129.035C277.089 131.645 273.029 133.965 269.549 134.98L274.914 153.105C279.699 152.235 287.964 149.335 295.794 141.795C304.929 132.66 311.744 118.45 320.734 92.35L339.004 36.235H316.674L306.524 78.43Z" fill="#F9417F"/>
</svg>
