<svg width="499" height="252" viewBox="0 0 499 252" fill="none" xmlns="http://www.w3.org/2000/svg">
<path d="M171 184V115H205V184C205 188.418 201.418 192 197 192H179C174.582 192 171 188.418 171 184Z" fill="#F94885"/>
<path d="M317.5 185.5V7.53515C317.5 4.72899 320.637 3.06384 322.961 4.63616L348.961 22.2244C349.923 22.8754 350.5 23.9615 350.5 25.1234V75C350.5 77.4853 352.515 79.5 355 79.5H403C413.77 79.5 422.5 88.2305 422.5 99V100V152C422.5 156.694 426.306 160.5 431 160.5H457C461.694 160.5 465.5 156.694 465.5 152V78.8569H479C489.77 78.8569 498.5 87.5874 498.5 98.3569V244C498.5 248.142 495.142 251.5 491 251.5H409C398.23 251.5 389.5 242.77 389.5 232V218.5H457C461.694 218.5 465.5 214.694 465.5 210V202C465.5 197.306 461.694 193.5 457 193.5H397C392.858 193.5 389.5 190.142 389.5 186V119C389.5 115.41 386.59 112.5 383 112.5H359C354.306 112.5 350.5 116.306 350.5 121V152C350.5 156.694 354.306 160.5 359 160.5H372.5C376.642 160.5 380 163.858 380 168V185.5C380 189.642 376.642 193 372.5 193H325C320.858 193 317.5 189.642 317.5 185.5Z" fill="#F94885" stroke="#F94885"/>
<path d="M245.241 21.8102L219.241 4.22201C216.585 2.42508 213 4.32811 213 7.53514V184C213 188.418 216.582 192 221 192H301C305.418 192 309 188.418 309 184V115H275V150C275 154.418 271.418 158 267 158H255C250.582 158 247 154.418 247 150V25.1234C247 23.7955 246.341 22.5542 245.241 21.8102Z" fill="#F94885"/>
<path fill-rule="evenodd" clip-rule="evenodd" d="M104.496 5.11976L130.379 20.3873C131.163 21.1414 131.607 22.1841 131.607 27.2741V61.5462C131.607 65.9645 135.189 69.5462 139.607 69.5462H162.5V106.5L139.709 106.526C135.251 106.531 131.657 110.179 131.719 114.636L132 135C131.5 169 105.5 200.5 66 200.5C27 200 1 167.467 1 136C1 101.5 27 70 66.7984 69.5462H89.0971C93.4773 69.5462 97.043 66.0238 97.0965 61.644L97.7515 8.03285C97.7283 4.49901 101.952 2.67463 104.496 5.11976ZM99 135.075C99 153.024 84.4493 167.575 66.5 167.575C48.5507 167.575 34 153.024 34 135.075C34 117.126 48.5507 102.575 66.5 102.575H91C95.4183 102.575 99 106.157 99 110.575V135.075Z" fill="#F94885"/>
<path d="M130.379 20.3873L130.725 20.0268L130.683 19.9863L130.633 19.9566L130.379 20.3873ZM104.496 5.11976L104.149 5.48023L104.191 5.52073L104.242 5.55042L104.496 5.11976ZM162.5 69.5462H163V69.0462H162.5V69.5462ZM162.5 106.5L162.501 107L163 106.999V106.5H162.5ZM139.709 106.526L139.71 107.026L139.709 106.526ZM131.719 114.636L131.219 114.643L131.719 114.636ZM132 135L132.5 135.007L132.5 135L132.5 134.993L132 135ZM66 200.5L65.9936 201H66V200.5ZM66.7984 69.5462V69.0462L66.7927 69.0463L66.7984 69.5462ZM97.0965 61.644L96.5966 61.6379L97.0965 61.644ZM97.7515 8.03285L98.2516 8.03895L98.2515 8.02956L97.7515 8.03285ZM130.633 19.9566L104.75 4.6891L104.242 5.55042L130.125 20.818L130.633 19.9566ZM132.107 27.2741C132.107 24.7252 131.997 23.1474 131.776 22.1016C131.549 21.0223 131.197 20.4802 130.725 20.0268L130.032 20.7478C130.345 21.0486 130.607 21.4049 130.798 22.3079C130.995 23.2445 131.107 24.733 131.107 27.2741H132.107ZM132.107 61.5462V27.2741H131.107V61.5462H132.107ZM139.607 69.0462C135.465 69.0462 132.107 65.6884 132.107 61.5462H131.107C131.107 66.2407 134.912 70.0462 139.607 70.0462V69.0462ZM162.5 69.0462H139.607V70.0462H162.5V69.0462ZM163 106.5V69.5462H162V106.5H163ZM139.71 107.026L162.501 107L162.499 106L139.708 106.026L139.71 107.026ZM132.219 114.629C132.161 110.45 135.53 107.03 139.71 107.026L139.708 106.026C134.972 106.031 131.153 109.907 131.219 114.643L132.219 114.629ZM132.5 134.993L132.219 114.629L131.219 114.643L131.5 135.007L132.5 134.993ZM66 201C105.804 201 131.996 169.248 132.5 135.007L131.5 134.993C131.004 168.752 105.196 200 66 200V201ZM0.5 136C0.5 167.717 26.6962 200.496 65.9936 201L66.0064 200C27.3038 199.504 1.5 167.218 1.5 136H0.5ZM66.7927 69.0463C26.6957 69.5034 0.5 101.251 0.5 136H1.5C1.5 101.749 27.3043 70.4966 66.8041 70.0462L66.7927 69.0463ZM89.0971 69.0462H66.7984V70.0462H89.0971V69.0462ZM96.5966 61.6379C96.5464 65.744 93.2035 69.0462 89.0971 69.0462V70.0462C93.7511 70.0462 97.5397 66.3036 97.5965 61.6501L96.5966 61.6379ZM97.2516 8.02674L96.5966 61.6379L97.5965 61.6501L98.2515 8.03895L97.2516 8.02674ZM104.842 4.75929C101.977 2.00543 97.2255 4.06324 97.2515 8.03613L98.2515 8.02956C98.2312 4.93478 101.927 3.34382 104.149 5.48023L104.842 4.75929ZM66.5 168.075C84.7254 168.075 99.5 153.3 99.5 135.075H98.5C98.5 152.748 84.1731 167.075 66.5 167.075V168.075ZM33.5 135.075C33.5 153.3 48.2746 168.075 66.5 168.075V167.075C48.8269 167.075 34.5 152.748 34.5 135.075H33.5ZM66.5 102.075C48.2746 102.075 33.5 116.85 33.5 135.075H34.5C34.5 117.402 48.8269 103.075 66.5 103.075V102.075ZM91 102.075H66.5V103.075H91V102.075ZM99.5 110.575C99.5 105.881 95.6944 102.075 91 102.075V103.075C95.1421 103.075 98.5 106.433 98.5 110.575H99.5ZM99.5 135.075V110.575H98.5V135.075H99.5Z" fill="#F94885"/>
<path d="M171 107H205V89C205 77.9543 196.046 69 185 69H171V107Z" fill="#F94885"/>
<path d="M275 107H309V90C309 78.9543 300.046 70 289 70H275V107Z" fill="#F94885"/>
</svg>
