<?xml version="1.0" encoding="utf-8"?>
<!-- Generator: Adobe Illustrator 16.0.3, SVG Export Plug-In . SVG Version: 6.00 Build 0)  -->
<!DOCTYPE svg PUBLIC "-//W3C//DTD SVG 1.1//EN" "http://www.w3.org/Graphics/SVG/1.1/DTD/svg11.dtd">
<svg version="1.1" xmlns="http://www.w3.org/2000/svg" xmlns:xlink="http://www.w3.org/1999/xlink" x="0px" y="0px" width="72px"
	 height="72px" viewBox="0 0 72 72" enable-background="new 0 0 72 72" xml:space="preserve">
<g id="Ebene_1">
</g>
<g id="Ebene_2">
	<g>
		<g>
			<path fill="#EA4A84" d="M32.768,15.519l10.018,5.785l-0.037,6.924l-6.447,5.891c-0.609,0.557-0.963,1.341-0.977,2.167
				c-0.013,0.826,0.314,1.621,0.906,2.197l6.327,6.166v6.504l-9.79,5.653L14.889,46.483V25.841L32.768,15.519 M32.768,12.055
				L11.889,24.109v24.106l20.879,12.053l12.79-7.385v-9.502l-7.233-7.049l7.417-6.776l0.053-9.979L32.768,12.055L32.768,12.055z"/>
		</g>
		<g>
			<path fill="#EA4A84" d="M32.935,15.519l10.018,5.785l-0.037,6.924l-6.447,5.891c-0.609,0.557-0.963,1.341-0.977,2.167
				c-0.013,0.826,0.314,1.621,0.906,2.197l6.327,6.166v6.504l-9.79,5.653L15.056,46.483V25.841L32.935,15.519 M32.935,12.055
				L12.056,24.109v24.106l20.879,12.053l12.79-7.385v-9.502l-7.233-7.049l7.417-6.776l0.053-9.979L32.935,12.055L32.935,12.055z"/>
		</g>
	</g>
	
		<rect x="1.764" y="1.828" fill="none" stroke="#EA4A84" stroke-width="3" stroke-linecap="round" stroke-linejoin="round" stroke-miterlimit="10" width="68.667" height="68.667"/>
</g>
<g id="Isolationsmodus">
	<path fill="#EA4A84" d="M40.77,14.74c-1.766,0-3.48,0.215-5.125,0.611l8.812,5.089l-0.044,8.452l-6.933,6.333
		c-0.305,0.278-0.481,0.67-0.488,1.083c-0.007,0.413,0.157,0.81,0.453,1.098l6.78,6.607v8.003l-9.512,5.492
		c1.924,0.555,3.954,0.858,6.057,0.858c12.049,0,21.815-9.768,21.815-21.813C62.585,24.508,52.818,14.74,40.77,14.74z
		 M49.014,42.632c0.393,0.388,0.396,1.021,0.009,1.414c-0.196,0.198-0.454,0.297-0.712,0.297c-0.254,0-0.508-0.096-0.703-0.289
		l-7.309-7.219c-0.194-0.192-0.302-0.457-0.297-0.731c0.006-0.274,0.123-0.534,0.325-0.719l7.417-6.776
		c0.408-0.372,1.04-0.346,1.413,0.064c0.372,0.408,0.344,1.04-0.063,1.413l-6.641,6.066L49.014,42.632z"/>
</g>
</svg>
